
<svg width="10px" height="11px" viewBox="0 0 10 11"   xmlns="http://www.w3.org/2000/svg">
    
    <g id="Doctor-Sub-Speciality" stroke="none" stroke-width="1" fill="none" fill-rule="evenodd">
        <g id="Speciality-page_experiment-5.1-Copy-5" transform="translate(-34.000000, -1031.000000)" fill-rule="nonzero">
            <g id="Group-4" transform="translate(34.000000, 1031.000000)">
                <path d="M2.5,1.9 C1.6163444,1.9 0.9,2.6163444 0.9,3.5 L0.9,8.5 C0.9,9.3836556 1.6163444,10.1 2.5,10.1 L7.5,10.1 C8.3836556,10.1 9.1,9.3836556 9.1,8.5 L9.1,3.5 C9.1,2.6163444 8.3836556,1.9 7.5,1.9 L2.5,1.9 Z M2.5,0 L2.5,1 L2.5,1 L4.5,0.999 L4.5,0 L5.5,0 L5.5,0.999 L7.5,1 L7.5,0 L8.5,0 L8.50083003,1.20838468 C9.38333908,1.59435237 10,2.47516175 10,3.5 L10,8.5 C10,9.88071187 8.88071187,11 7.5,11 L2.5,11 C1.11928813,11 0,9.88071187 0,8.5 L0,3.5 C0,2.47477282 0.617129067,1.59368385 1.50017484,1.20794546 L1.5,0 L2.5,0 Z" id="Combined-Shape-Copy-61" fill="#262626"></path>
                <rect id="Combined-Shape-Copy-62" fill="#000000" x="6" y="4" width="1" height="1" rx="0.5"></rect>
            </g>
        </g>
    </g>
</svg>
