<?xml version="1.0" encoding="iso-8859-1"?>
<!-- Generator: Adobe Illustrator 19.0.0, SVG Export Plug-In . SVG Version: 6.00 Build 0)  -->
<svg version="1.1" id="Layer_1" xmlns="http://www.w3.org/2000/svg" xmlns:xlink="http://www.w3.org/1999/xlink" x="0px" y="0px"
	 viewBox="0 0 512.035 512.035" xml:space="preserve">
<g transform="translate(1 1)">
	<polygon style="fill:#fb3959;" points="255.035,502.484 459.835,255.017 255.035,7.551 50.235,7.551 255.035,255.017 
		50.235,502.484 	"/>
	<polygon style="fill:#fb3959;" points="255.035,255.017 255.035,255.017 7.568,502.484 50.235,502.484 	"/>
	<polygon style="fill:#fb3959;" points="502.501,255.017 255.035,7.551 203.835,7.551 203.835,7.551 255.035,7.551 459.835,255.017 
		255.035,502.484 	"/>
	<polygon style="fill:#fb3959;" points="195.301,7.551 195.301,7.551 7.568,7.551 255.035,255.017 50.235,7.551 	"/>
	<path d="M255.035,511.017H7.568c-3.413,0-6.827-1.707-7.68-5.12c-0.853-3.413-0.853-6.827,1.707-9.387l241.493-241.493
		L1.595,13.524c-2.56-2.56-3.413-5.973-1.707-9.387c0.853-3.413,4.267-5.12,7.68-5.12h247.467c2.56,0,4.267,0.853,5.973,2.56
		l42.667,42.667c3.413,3.413,3.413,8.533,0,11.947c-3.413,3.413-8.533,3.413-11.947,0l-40.107-40.107H28.048l232.96,232.96
		c3.413,3.413,3.413,8.533,0,11.947l-232.96,232.96h223.573l238.933-238.933L342.928,107.391c-3.413-3.413-3.413-8.533,0-11.947
		c3.413-3.413,8.533-3.413,11.947,0l153.6,153.6c3.413,3.413,3.413,8.533,0,11.947L261.008,508.457
		C259.301,510.164,257.595,511.017,255.035,511.017z"/>
	<path d="M331.835,75.817c0-5.12-3.413-8.533-8.533-8.533c-5.12,0-8.533,3.413-8.533,8.533c0,5.12,3.413,8.533,8.533,8.533
		C328.421,84.351,331.835,80.937,331.835,75.817"/>
</g>
<g>
</g>
<g>
</g>
<g>
</g>
<g>
</g>
<g>
</g>
<g>
</g>
<g>
</g>
<g>
</g>
<g>
</g>
<g>
</g>
<g>
</g>
<g>
</g>
<g>
</g>
<g>
</g>
<g>
</g>
</svg>
